<svg width="32" height="32" viewBox="0 0 32 32" fill="none" xmlns="http://www.w3.org/2000/svg">
  <!-- Background circle -->
  <circle cx="16" cy="16" r="15" fill="#FFF8DC" stroke="#8B4513" stroke-width="2"/>
  
  <!-- Cat ears -->
  <path d="M8 12 L12 6 L16 12 Z" fill="#D2691E"/>
  <path d="M16 12 L20 6 L24 12 Z" fill="#D2691E"/>
  <path d="M10 10 L12 8 L14 10 Z" fill="#FFB6C1"/>
  <path d="M18 10 L20 8 L22 10 Z" fill="#FFB6C1"/>
  
  <!-- Cat head -->
  <circle cx="16" cy="18" r="10" fill="#F4A460"/>
  
  <!-- Cat stripes -->
  <path d="M8 15 Q16 13 24 15" stroke="#D2691E" stroke-width="1.5" fill="none"/>
  <path d="M9 18 Q16 16 23 18" stroke="#D2691E" stroke-width="1.5" fill="none"/>
  <path d="M10 21 Q16 19 22 21" stroke="#D2691E" stroke-width="1.5" fill="none"/>
  
  <!-- Cat eyes -->
  <ellipse cx="12" cy="16" rx="2" ry="2.5" fill="#228B22"/>
  <ellipse cx="20" cy="16" rx="2" ry="2.5" fill="#228B22"/>
  <ellipse cx="12" cy="15.5" rx="0.8" ry="1.2" fill="#000"/>
  <ellipse cx="20" cy="15.5" rx="0.8" ry="1.2" fill="#000"/>
  <circle cx="12.3" cy="15" r="0.3" fill="#FFF"/>
  <circle cx="20.3" cy="15" r="0.3" fill="#FFF"/>
  
  <!-- Cat nose -->
  <path d="M16 19 L15 21 L17 21 Z" fill="#FFB6C1"/>
  
  <!-- Cat mouth -->
  <path d="M16 21 Q14 22 12 21" stroke="#8B4513" stroke-width="1" fill="none"/>
  <path d="M16 21 Q18 22 20 21" stroke="#8B4513" stroke-width="1" fill="none"/>
  
  <!-- Cat whiskers -->
  <line x1="6" y1="18" x2="10" y2="17" stroke="#8B4513" stroke-width="1"/>
  <line x1="6" y1="20" x2="10" y2="19" stroke="#8B4513" stroke-width="1"/>
  <line x1="22" y1="17" x2="26" y2="18" stroke="#8B4513" stroke-width="1"/>
  <line x1="22" y1="19" x2="26" y2="20" stroke="#8B4513" stroke-width="1"/>
</svg>
